<svg xmlns="http://www.w3.org/2000/svg" xmlns:v="https://svgstorm.com"
viewBox = "0 0 256 256"
width="256"
height="256">
<g fill="None" fill-opacity="0.0" stroke="#00040D" stroke-opacity="0.00" stroke-width="0.3"><path d="
M 0.00 84.00 
C 0.92 37.66 37.71 1.00 84.00 1.00
C 83.96 1.00 84.00 0.00 84.00 0.00
L 0.00 0.00
L 0.00 84.00 Z"/>
</g>
<g fill="None" fill-opacity="0.0" stroke="#0F1E2F" stroke-opacity="0.61" stroke-width="0.3"><path d="
M 84.00 1.00 
C 87.83 1.00 92.99 1.82 96.00 0.00
L 84.00 0.00
C 84.00 0.00 83.96 1.00 84.00 1.00 Z"/>
</g>
<g fill="None" fill-opacity="0.0" stroke="#0F1E2F" stroke-opacity="0.99" stroke-width="0.3"><path d="
M 84.00 1.00 
C 37.71 1.00 0.92 37.66 0.00 84.00
L 0.00 86.00
C 1.56 88.61 1.72 94.46 0.00 97.00
L 0.00 172.00
C 0.38 217.11 37.96 255.45 83.00 256.00
L 161.00 256.00
C 164.09 254.23 169.16 255.00 173.00 255.00
C 218.05 255.00 253.51 219.09 256.00 175.00
L 256.00 84.00
C 255.16 39.43 219.37 1.00 174.00 1.00
C 169.83 1.00 164.34 1.82 161.00 0.00
L 96.00 0.00
C 92.99 1.82 87.83 1.00 84.00 1.00
M 79.00 90.00 
C 85.42 80.31 85.76 58.86 100.23 54.23 C 114.70 49.60 121.37 77.00 128.00 84.00
C 135.34 75.20 142.30 50.11 158.00 53.00 C 173.70 55.89 172.25 82.21 182.00 90.00
C 186.53 73.90 190.38 63.09 198.75 47.75 C 207.13 32.42 237.24 37.89 229.02 56.02 C 220.80 74.15 220.62 84.63 215.02 102.02 C 209.43 119.42 206.09 132.03 203.00 150.00 C 199.92 167.97 193.21 177.84 191.22 197.22 C 189.23 216.60 175.62 222.99 156.00 222.00 C 136.37 221.00 115.84 221.13 96.33 221.67 C 76.82 222.21 70.29 208.66 66.07 191.93 C 61.86 175.19 58.27 161.94 53.23 145.77 C 48.19 129.60 44.08 115.76 40.01 98.99 C 35.94 82.23 29.41 71.60 25.22 53.78 C 21.04 35.95 52.16 34.95 60.25 48.75 C 68.34 62.55 73.57 75.19 79.00 90.00 Z"/>
</g>
<g fill="None" fill-opacity="0.0" stroke="#0F1E2F" stroke-opacity="0.52" stroke-width="0.3"><path d="
M 174.00 1.00 
C 173.96 1.00 174.00 0.00 174.00 0.00
L 161.00 0.00
C 164.34 1.82 169.83 1.00 174.00 1.00 Z"/>
</g>
<g fill="None" fill-opacity="0.0" stroke="#00040D" stroke-opacity="0.00" stroke-width="0.3"><path d="
M 174.00 1.00 
C 219.37 1.00 255.16 39.43 256.00 84.00
L 256.00 0.00
L 174.00 0.00
C 174.00 0.00 173.96 1.00 174.00 1.00 Z"/>
</g>
<g fill="None" fill-opacity="0.0" stroke="#EFF8F8" stroke-opacity="1.00" stroke-width="0.3"><path d="
M 79.00 90.00 
C 73.57 75.19 68.34 62.55 60.25 48.75 C 52.16 34.95 21.04 35.95 25.22 53.78 C 29.41 71.60 35.94 82.23 40.01 98.99 C 44.08 115.76 48.19 129.60 53.23 145.77 C 58.27 161.94 61.86 175.19 66.07 191.93 C 70.29 208.66 76.82 222.21 96.33 221.67 C 115.84 221.13 136.37 221.00 156.00 222.00 C 175.62 222.99 189.23 216.60 191.22 197.22 C 193.21 177.84 199.92 167.97 203.00 150.00 C 206.09 132.03 209.43 119.42 215.02 102.02 C 220.62 84.63 220.80 74.15 229.02 56.02 C 237.24 37.89 207.13 32.42 198.75 47.75 C 190.38 63.09 186.53 73.90 182.00 90.00
C 172.25 82.21 173.70 55.89 158.00 53.00 C 142.30 50.11 135.34 75.20 128.00 84.00
C 121.37 77.00 114.70 49.60 100.23 54.23 C 85.76 58.86 85.42 80.31 79.00 90.00
M 220.00 46.00 
C 225.04 48.53 217.62 61.79 216.02 67.02 C 214.42 72.26 210.80 82.40 209.01 89.01 C 207.21 95.62 204.31 105.00 202.02 112.02 C 199.74 119.05 196.80 126.26 194.68 133.68 C 192.55 141.09 190.22 149.46 188.07 157.07 C 185.93 164.68 184.43 172.08 181.68 179.68 C 178.93 187.28 179.15 194.68 170.97 198.97 C 162.80 203.27 152.44 197.38 155.00 188.00 C 157.56 178.62 159.28 174.22 163.77 166.77 C 168.26 159.32 169.32 153.68 171.93 145.93 C 174.53 138.17 175.57 129.58 177.98 121.98 C 180.38 114.37 181.19 106.42 184.31 99.31 C 187.42 92.20 189.12 84.04 191.92 76.92 C 194.73 69.81 197.82 63.24 200.32 56.32 C 202.82 49.40 212.25 42.11 220.00 46.00
M 116.00 115.00 
C 119.76 120.27 125.16 125.50 127.00 132.00
C 132.21 129.24 132.20 120.16 138.00 117.00
C 144.78 133.43 147.18 148.43 153.78 165.22 C 160.37 182.02 141.55 196.96 127.32 201.32 C 113.10 205.68 88.26 216.82 83.08 197.92 C 77.89 179.03 73.34 166.40 68.22 148.78 C 63.11 131.15 58.18 115.94 53.22 98.78 C 48.27 81.61 42.20 66.21 38.00 49.00
C 56.25 40.03 61.70 67.22 66.78 78.22 C 71.86 89.23 70.96 92.25 74.92 101.08 C 78.89 109.90 79.93 117.31 82.93 125.07 C 85.92 132.84 88.01 142.47 89.98 149.02 C 91.94 155.58 96.28 169.53 101.92 163.91 C 107.55 158.30 106.16 147.62 109.33 140.33 C 112.50 133.04 113.25 122.67 116.00 115.00 Z"/>
</g>
<g fill="None" fill-opacity="0.0" stroke="#0F1E2F" stroke-opacity="1.00" stroke-width="0.3"><path d="
M 220.00 46.00 
C 212.25 42.11 202.82 49.40 200.32 56.32 C 197.82 63.24 194.73 69.81 191.92 76.92 C 189.12 84.04 187.42 92.20 184.31 99.31 C 181.19 106.42 180.38 114.37 177.98 121.98 C 175.57 129.58 174.53 138.17 171.93 145.93 C 169.32 153.68 168.26 159.32 163.77 166.77 C 159.28 174.22 157.56 178.62 155.00 188.00 C 152.44 197.38 162.80 203.27 170.97 198.97 C 179.15 194.68 178.93 187.28 181.68 179.68 C 184.43 172.08 185.93 164.68 188.07 157.07 C 190.22 149.46 192.55 141.09 194.68 133.68 C 196.80 126.26 199.74 119.05 202.02 112.02 C 204.31 105.00 207.21 95.62 209.01 89.01 C 210.80 82.40 214.42 72.26 216.02 67.02 C 217.62 61.79 225.04 48.53 220.00 46.00 Z"/>
</g>
<g fill="None" fill-opacity="0.0" stroke="#0F1E2F" stroke-opacity="1.00" stroke-width="0.3"><path d="
M 116.00 115.00 
C 113.25 122.67 112.50 133.04 109.33 140.33 C 106.16 147.62 107.55 158.30 101.92 163.91 C 96.28 169.53 91.94 155.58 89.98 149.02 C 88.01 142.47 85.92 132.84 82.93 125.07 C 79.93 117.31 78.89 109.90 74.92 101.08 C 70.96 92.25 71.86 89.23 66.78 78.22 C 61.70 67.22 56.25 40.03 38.00 49.00
C 42.20 66.21 48.27 81.61 53.22 98.78 C 58.18 115.94 63.11 131.15 68.22 148.78 C 73.34 166.40 77.89 179.03 83.08 197.92 C 88.26 216.82 113.10 205.68 127.32 201.32 C 141.55 196.96 160.37 182.02 153.78 165.22 C 147.18 148.43 144.78 133.43 138.00 117.00
C 132.20 120.16 132.21 129.24 127.00 132.00
C 125.16 125.50 119.76 120.27 116.00 115.00 Z"/>
</g>
<g fill="None" fill-opacity="0.0" stroke="#0F1E2F" stroke-opacity="0.75" stroke-width="0.3"><path d="
M 0.00 97.00 
C 1.72 94.46 1.56 88.61 0.00 86.00
L 0.00 97.00 Z"/>
</g>
<g fill="None" fill-opacity="0.0" stroke="#00040D" stroke-opacity="0.00" stroke-width="0.3"><path d="
M 0.00 256.00 
L 83.00 256.00
C 37.96 255.45 0.38 217.11 0.00 172.00
L 0.00 256.00 Z"/>
</g>
<g fill="None" fill-opacity="0.0" stroke="#00040D" stroke-opacity="0.00" stroke-width="0.3"><path d="
M 173.00 255.00 
C 173.04 255.00 173.00 256.00 173.00 256.00
L 256.00 256.00
L 256.00 175.00
C 253.51 219.09 218.05 255.00 173.00 255.00 Z"/>
</g>
<g fill="None" fill-opacity="0.0" stroke="#0F1E2F" stroke-opacity="0.55" stroke-width="0.3"><path d="
M 161.00 256.00 
L 173.00 256.00
C 173.00 256.00 173.04 255.00 173.00 255.00
C 169.16 255.00 164.09 254.23 161.00 256.00 Z"/>
</g>
<g fill="#00040D" fill-opacity="0.00" stroke="None">
<path d="
M 0.00 84.00 
C 0.92 37.66 37.71 1.00 84.00 1.00
C 83.96 1.00 84.00 0.00 84.00 0.00
L 0.00 0.00
L 0.00 84.00 Z"/>
</g>
<g fill="#0F1E2F" fill-opacity="0.61" stroke="None">
<path d="
M 84.00 1.00 
C 87.83 1.00 92.99 1.82 96.00 0.00
L 84.00 0.00
C 84.00 0.00 83.96 1.00 84.00 1.00 Z"/>
</g>
<g fill="#0F1E2F" fill-opacity="0.99" stroke="None">
<path d="
M 84.00 1.00 
C 37.71 1.00 0.92 37.66 0.00 84.00
L 0.00 86.00
C 1.56 88.61 1.72 94.46 0.00 97.00
L 0.00 172.00
C 0.38 217.11 37.96 255.45 83.00 256.00
L 161.00 256.00
C 164.09 254.23 169.16 255.00 173.00 255.00
C 218.05 255.00 253.51 219.09 256.00 175.00
L 256.00 84.00
C 255.16 39.43 219.37 1.00 174.00 1.00
C 169.83 1.00 164.34 1.82 161.00 0.00
L 96.00 0.00
C 92.99 1.82 87.83 1.00 84.00 1.00
M 79.00 90.00 
C 85.42 80.31 85.76 58.86 100.23 54.23 C 114.70 49.60 121.37 77.00 128.00 84.00
C 135.34 75.20 142.30 50.11 158.00 53.00 C 173.70 55.89 172.25 82.21 182.00 90.00
C 186.53 73.90 190.38 63.09 198.75 47.75 C 207.13 32.42 237.24 37.89 229.02 56.02 C 220.80 74.15 220.62 84.63 215.02 102.02 C 209.43 119.42 206.09 132.03 203.00 150.00 C 199.92 167.97 193.21 177.84 191.22 197.22 C 189.23 216.60 175.62 222.99 156.00 222.00 C 136.37 221.00 115.84 221.13 96.33 221.67 C 76.82 222.21 70.29 208.66 66.07 191.93 C 61.86 175.19 58.27 161.94 53.23 145.77 C 48.19 129.60 44.08 115.76 40.01 98.99 C 35.94 82.23 29.41 71.60 25.22 53.78 C 21.04 35.95 52.16 34.95 60.25 48.75 C 68.34 62.55 73.57 75.19 79.00 90.00 Z"/>
</g>
<g fill="#0F1E2F" fill-opacity="0.52" stroke="None">
<path d="
M 174.00 1.00 
C 173.96 1.00 174.00 0.00 174.00 0.00
L 161.00 0.00
C 164.34 1.82 169.83 1.00 174.00 1.00 Z"/>
</g>
<g fill="#00040D" fill-opacity="0.00" stroke="None">
<path d="
M 174.00 1.00 
C 219.37 1.00 255.16 39.43 256.00 84.00
L 256.00 0.00
L 174.00 0.00
C 174.00 0.00 173.96 1.00 174.00 1.00 Z"/>
</g>
<g fill="#EFF8F8" fill-opacity="1.00" stroke="None">
<path d="
M 79.00 90.00 
C 73.57 75.19 68.34 62.55 60.25 48.75 C 52.16 34.95 21.04 35.95 25.22 53.78 C 29.41 71.60 35.94 82.23 40.01 98.99 C 44.08 115.76 48.19 129.60 53.23 145.77 C 58.27 161.94 61.86 175.19 66.07 191.93 C 70.29 208.66 76.82 222.21 96.33 221.67 C 115.84 221.13 136.37 221.00 156.00 222.00 C 175.62 222.99 189.23 216.60 191.22 197.22 C 193.21 177.84 199.92 167.97 203.00 150.00 C 206.09 132.03 209.43 119.42 215.02 102.02 C 220.62 84.63 220.80 74.15 229.02 56.02 C 237.24 37.89 207.13 32.42 198.75 47.75 C 190.38 63.09 186.53 73.90 182.00 90.00
C 172.25 82.21 173.70 55.89 158.00 53.00 C 142.30 50.11 135.34 75.20 128.00 84.00
C 121.37 77.00 114.70 49.60 100.23 54.23 C 85.76 58.86 85.42 80.31 79.00 90.00
M 220.00 46.00 
C 225.04 48.53 217.62 61.79 216.02 67.02 C 214.42 72.26 210.80 82.40 209.01 89.01 C 207.21 95.62 204.31 105.00 202.02 112.02 C 199.74 119.05 196.80 126.26 194.68 133.68 C 192.55 141.09 190.22 149.46 188.07 157.07 C 185.93 164.68 184.43 172.08 181.68 179.68 C 178.93 187.28 179.15 194.68 170.97 198.97 C 162.80 203.27 152.44 197.38 155.00 188.00 C 157.56 178.62 159.28 174.22 163.77 166.77 C 168.26 159.32 169.32 153.68 171.93 145.93 C 174.53 138.17 175.57 129.58 177.98 121.98 C 180.38 114.37 181.19 106.42 184.31 99.31 C 187.42 92.20 189.12 84.04 191.92 76.92 C 194.73 69.81 197.82 63.24 200.32 56.32 C 202.82 49.40 212.25 42.11 220.00 46.00
M 116.00 115.00 
C 119.76 120.27 125.16 125.50 127.00 132.00
C 132.21 129.24 132.20 120.16 138.00 117.00
C 144.78 133.43 147.18 148.43 153.78 165.22 C 160.37 182.02 141.55 196.96 127.32 201.32 C 113.10 205.68 88.26 216.82 83.08 197.92 C 77.89 179.03 73.34 166.40 68.22 148.78 C 63.11 131.15 58.18 115.94 53.22 98.78 C 48.27 81.61 42.20 66.21 38.00 49.00
C 56.25 40.03 61.70 67.22 66.78 78.22 C 71.86 89.23 70.96 92.25 74.92 101.08 C 78.89 109.90 79.93 117.31 82.93 125.07 C 85.92 132.84 88.01 142.47 89.98 149.02 C 91.94 155.58 96.28 169.53 101.92 163.91 C 107.55 158.30 106.16 147.62 109.33 140.33 C 112.50 133.04 113.25 122.67 116.00 115.00 Z"/>
</g>
<g fill="#0F1E2F" fill-opacity="1.00" stroke="None">
<path d="
M 220.00 46.00 
C 212.25 42.11 202.82 49.40 200.32 56.32 C 197.82 63.24 194.73 69.81 191.92 76.92 C 189.12 84.04 187.42 92.20 184.31 99.31 C 181.19 106.42 180.38 114.37 177.98 121.98 C 175.57 129.58 174.53 138.17 171.93 145.93 C 169.32 153.68 168.26 159.32 163.77 166.77 C 159.28 174.22 157.56 178.62 155.00 188.00 C 152.44 197.38 162.80 203.27 170.97 198.97 C 179.15 194.68 178.93 187.28 181.68 179.68 C 184.43 172.08 185.93 164.68 188.07 157.07 C 190.22 149.46 192.55 141.09 194.68 133.68 C 196.80 126.26 199.74 119.05 202.02 112.02 C 204.31 105.00 207.21 95.62 209.01 89.01 C 210.80 82.40 214.42 72.26 216.02 67.02 C 217.62 61.79 225.04 48.53 220.00 46.00 Z"/>
</g>
<g fill="#0F1E2F" fill-opacity="1.00" stroke="None">
<path d="
M 116.00 115.00 
C 113.25 122.67 112.50 133.04 109.33 140.33 C 106.16 147.62 107.55 158.30 101.92 163.91 C 96.28 169.53 91.94 155.58 89.98 149.02 C 88.01 142.47 85.92 132.84 82.93 125.07 C 79.93 117.31 78.89 109.90 74.92 101.08 C 70.96 92.25 71.86 89.23 66.78 78.22 C 61.70 67.22 56.25 40.03 38.00 49.00
C 42.20 66.21 48.27 81.61 53.22 98.78 C 58.18 115.94 63.11 131.15 68.22 148.78 C 73.34 166.40 77.89 179.03 83.08 197.92 C 88.26 216.82 113.10 205.68 127.32 201.32 C 141.55 196.96 160.37 182.02 153.78 165.22 C 147.18 148.43 144.78 133.43 138.00 117.00
C 132.20 120.16 132.21 129.24 127.00 132.00
C 125.16 125.50 119.76 120.27 116.00 115.00 Z"/>
</g>
<g fill="#0F1E2F" fill-opacity="0.75" stroke="None">
<path d="
M 0.00 97.00 
C 1.72 94.46 1.56 88.61 0.00 86.00
L 0.00 97.00 Z"/>
</g>
<g fill="#00040D" fill-opacity="0.00" stroke="None">
<path d="
M 0.00 256.00 
L 83.00 256.00
C 37.96 255.45 0.38 217.11 0.00 172.00
L 0.00 256.00 Z"/>
</g>
<g fill="#00040D" fill-opacity="0.00" stroke="None">
<path d="
M 173.00 255.00 
C 173.04 255.00 173.00 256.00 173.00 256.00
L 256.00 256.00
L 256.00 175.00
C 253.51 219.09 218.05 255.00 173.00 255.00 Z"/>
</g>
<g fill="#0F1E2F" fill-opacity="0.55" stroke="None">
<path d="
M 161.00 256.00 
L 173.00 256.00
C 173.00 256.00 173.04 255.00 173.00 255.00
C 169.16 255.00 164.09 254.23 161.00 256.00 Z"/>
</g>
</svg>