<svg xmlns="http://www.w3.org/2000/svg" width="256" height="256"><path d="M0 84C1 38 38 1 84 1V0H0v84Z" stroke="none" fill="none" fill-opacity="0" stroke-opacity="0" stroke-width=".3"/><path d="M84 1c4 0 9 1 12-1H84v1Z" fill="none" fill-opacity="0" stroke="#0F1E2F" stroke-opacity=".6" stroke-width=".3"/><path d="M84 1C38 1 1 38 0 84v2c2 3 2 8 0 11v75c0 45 38 83 83 84h78c3-2 8-1 12-1 45 0 81-36 83-80V84c-1-45-37-83-82-83-4 0-10 1-13-1H96c-3 2-8 1-12 1m-5 89c6-10 7-31 21-36 15-4 21 23 28 30 7-9 14-34 30-31s14 29 24 37c5-16 8-27 17-42 8-16 38-10 30 8s-8 29-14 46-9 30-12 48-10 28-12 47c-2 20-15 26-35 25H96c-19 0-26-13-30-30l-13-46-13-47c-4-17-11-27-15-45s27-19 35-5 14 26 19 41Z" fill="none" fill-opacity="0" stroke="#0F1E2F" stroke-width=".3"/><path d="M174 1V0h-13c3 2 9 1 13 1Z" fill="none" fill-opacity="0" stroke="#0F1E2F" stroke-opacity=".5" stroke-width=".3"/><path d="M174 1c45 0 81 38 82 83V0h-82v1Z" stroke="none" fill="none" fill-opacity="0" stroke-opacity="0" stroke-width=".3"/><path d="M79 90c-5-15-11-27-19-41s-39-13-35 5 11 28 15 45l13 47 13 46c4 17 11 30 30 30h60c20 1 33-5 35-25 2-19 9-29 12-47s6-31 12-48 6-28 14-46-22-24-30-8c-9 15-12 26-17 42-10-8-8-34-24-37s-23 22-30 31c-7-7-13-34-28-30-14 5-15 26-21 36m141-44c5 3-2 16-4 21l-7 22-7 23-7 22-7 23-6 23c-3 7-3 15-11 19s-19-2-16-11 4-14 9-21l8-21 6-24c2-8 3-16 6-23l8-22 8-21c3-7 12-14 20-10m-104 69c4 5 9 11 11 17 5-3 5-12 11-15 7 16 9 31 16 48 6 17-12 32-27 36-14 5-39 16-44-3l-15-49-15-50c-5-17-11-33-15-50 18-9 24 18 29 29s4 14 8 23l8 24 7 24c2 7 6 21 12 15s4-16 7-24c4-7 4-17 7-25Z" fill="none" fill-opacity="0" stroke="#EFF8F8" stroke-width=".3"/><path d="M220 46c-8-4-17 3-20 10l-8 21-8 22c-3 7-4 15-6 23l-6 24-8 21c-5 7-6 12-9 21s8 15 16 11 8-12 11-19l6-23 7-23 7-22 7-23 7-22c2-5 9-18 4-21ZM116 115c-3 8-3 18-7 25-3 8-1 18-7 24s-10-8-12-15l-7-24-8-24c-4-9-3-12-8-23S56 40 38 49c4 17 10 33 15 50l15 50 15 49c5 19 30 8 44 3 15-4 33-19 27-36-7-17-9-32-16-48-6 3-6 12-11 15-2-6-7-12-11-17Z" fill="none" fill-opacity="0" stroke="#0F1E2F" stroke-width=".3"/><path d="M0 97c2-3 2-8 0-11v11Z" fill="none" fill-opacity="0" stroke="#0F1E2F" stroke-opacity=".8" stroke-width=".3"/><path d="M0 256h83c-45-1-83-39-83-84v84ZM173 255v1h83v-81c-2 44-38 80-83 80Z" stroke="none" fill="none" fill-opacity="0" stroke-opacity="0" stroke-width=".3"/><path d="M161 256h12v-1c-4 0-9-1-12 1Z" fill="none" fill-opacity="0" stroke="#0F1E2F" stroke-opacity=".6" stroke-width=".3"/><path d="M0 84C1 38 38 1 84 1V0H0v84Z" fill="none" fill-opacity="0" stroke="None"/><path d="M84 1c4 0 9 1 12-1H84v1Z" fill="#0F1E2F" fill-opacity=".6" stroke="None"/><path d="M84 1C38 1 1 38 0 84v2c2 3 2 8 0 11v75c0 45 38 83 83 84h78c3-2 8-1 12-1 45 0 81-36 83-80V84c-1-45-37-83-82-83-4 0-10 1-13-1H96c-3 2-8 1-12 1m-5 89c6-10 7-31 21-36 15-4 21 23 28 30 7-9 14-34 30-31s14 29 24 37c5-16 8-27 17-42 8-16 38-10 30 8s-8 29-14 46-9 30-12 48-10 28-12 47c-2 20-15 26-35 25H96c-19 0-26-13-30-30l-13-46-13-47c-4-17-11-27-15-45s27-19 35-5 14 26 19 41Z" fill="#0F1E2F" stroke="None"/><path d="M174 1V0h-13c3 2 9 1 13 1Z" fill="#0F1E2F" fill-opacity=".5" stroke="None"/><path d="M174 1c45 0 81 38 82 83V0h-82v1Z" fill="none" fill-opacity="0" stroke="None"/><path d="M79 90c-5-15-11-27-19-41s-39-13-35 5 11 28 15 45l13 47 13 46c4 17 11 30 30 30h60c20 1 33-5 35-25 2-19 9-29 12-47s6-31 12-48 6-28 14-46-22-24-30-8c-9 15-12 26-17 42-10-8-8-34-24-37s-23 22-30 31c-7-7-13-34-28-30-14 5-15 26-21 36m141-44c5 3-2 16-4 21l-7 22-7 23-7 22-7 23-6 23c-3 7-3 15-11 19s-19-2-16-11 4-14 9-21l8-21 6-24c2-8 3-16 6-23l8-22 8-21c3-7 12-14 20-10m-104 69c4 5 9 11 11 17 5-3 5-12 11-15 7 16 9 31 16 48 6 17-12 32-27 36-14 5-39 16-44-3l-15-49-15-50c-5-17-11-33-15-50 18-9 24 18 29 29s4 14 8 23l8 24 7 24c2 7 6 21 12 15s4-16 7-24c4-7 4-17 7-25Z" fill="#EFF8F8" stroke="None"/><path d="M220 46c-8-4-17 3-20 10l-8 21-8 22c-3 7-4 15-6 23l-6 24-8 21c-5 7-6 12-9 21s8 15 16 11 8-12 11-19l6-23 7-23 7-22 7-23 7-22c2-5 9-18 4-21ZM116 115c-3 8-3 18-7 25-3 8-1 18-7 24s-10-8-12-15l-7-24-8-24c-4-9-3-12-8-23S56 40 38 49c4 17 10 33 15 50l15 50 15 49c5 19 30 8 44 3 15-4 33-19 27-36-7-17-9-32-16-48-6 3-6 12-11 15-2-6-7-12-11-17Z" fill="#0F1E2F" stroke="None"/><path d="M0 97c2-3 2-8 0-11v11Z" fill="#0F1E2F" fill-opacity=".8" stroke="None"/><path d="M0 256h83c-45-1-83-39-83-84v84ZM173 255v1h83v-81c-2 44-38 80-83 80Z" fill="none" fill-opacity="0" stroke="None"/><path d="M161 256h12v-1c-4 0-9-1-12 1Z" fill="#0F1E2F" fill-opacity=".6" stroke="None"/></svg>